<svg width="48" height="48" viewBox="0 0 48 48" fill="none" xmlns="http://www.w3.org/2000/svg">
<g clip-path="url(#clip0_390_2513)">
<rect x="4" y="4" width="40" height="40" rx="20" fill="#334E33"/>
<path d="M32 33V31C32 29.9391 31.5786 28.9217 30.8284 28.1716C30.0783 27.4214 29.0609 27 28 27H20C18.9391 27 17.9217 27.4214 17.1716 28.1716C16.4214 28.9217 16 29.9391 16 31V33M28 19C28 21.2091 26.2091 23 24 23C21.7909 23 20 21.2091 20 19C20 16.7909 21.7909 15 24 15C26.2091 15 28 16.7909 28 19Z" stroke="#C6D8B8" stroke-width="2.5" stroke-linecap="round" stroke-linejoin="round"/>
</g>
<rect x="5.5" y="5.5" width="37" height="37" rx="18.5" stroke="#C6D8B8" stroke-width="3"/>
<defs>
<clipPath id="clip0_390_2513">
<rect x="4" y="4" width="40" height="40" rx="20" fill="white"/>
</clipPath>
</defs>
</svg>
